<?xml version="1.0" standalone="no"?>
<!DOCTYPE svg PUBLIC "-//W3C//DTD SVG 1.0//EN" "http://www.w3.org/TR/2001/REC-SVG-20010904/DTD/svg10.dtd">
<svg xmlns="http://www.w3.org/2000/svg" xmlns:xlink="http://www.w3.org/1999/xlink" id="body_1" width="65" height="49">

<g transform="matrix(0.39877304 0 0 0.40163934 0 0)">
	<g transform="matrix(0.43007916 0 0 0.42957747 0 0)">
		<g transform="matrix(0.28118813 0 0 0.28118813 48.006145 -0)">
            <path d="M1003.7 541.3C 1003.7 695.9 1003.7 850.5 1003.7 1005.3C 851.30005 1005.3 699 1005.3 546 1004.89996C 546.2 1004.1 547 1003.49994 547.9 1003.39996C 554.4 1002.69995 561 1002.39996 567.5 1001.3C 584.6 998.5 601.7 995.89996 618.5 992.2C 652.7 984.8 685.5 973 717.1 958.10004C 744.5 945.2 770.5 929.80005 795.1 912.10004C 814.89996 897.9 833.8 882.50006 851 865.2C 863.5 852.7 875.6 839.7 886.9 826.2C 897.80005 813.2 908 799.5 917.80005 785.5C 931.60004 765.8 943.60004 745 953.60004 723.1C 960.50006 707.8 967.9 692.6 973.4 676.8C 980.2 657.1 985.5 636.89996 990.80005 616.7C 997.00006 593 1000.2001 568.9 1001.80005 544.5C 1001.9 543.4 1003.1 542.4 1003.7 541.3z" stroke="none" fill="none" />
            <path d="M461.7 1005.3C 309.1 1005.3 156.5 1005.3 3.7000122 1005.3C 3.7000122 851.3 3.7000122 697.3 4.1000123 542.6C 4.9000125 542.8 5.5000124 543.6 5.6000123 544.5C 7.0000124 556.7 8.100012 569 9.700012 581.2C 12.800013 604.7 18.300013 627.60004 25.100012 650.3C 34.100014 680.3 45.50001 709.39996 60.600014 736.8C 70.80001 755.2 81.500015 773.3 93.000015 790.8C 107.80002 813.2 125.10001 833.8 143.90002 852.89996C 154.20003 863.39996 164.90002 873.6 176.10002 883.1C 189.40002 894.39996 203.10002 905.3 217.30002 915.39996C 243.10002 933.99994 270.80002 949.3 299.80002 962.39996C 323.2 972.89996 347.30002 981.49994 372.10004 988.19995C 386.40002 992.1 400.90002 995.49994 415.50003 997.99994C 429.70004 1000.49994 444.10004 1001.49994 458.40002 1003.39996C 459.6 1003.5 460.6 1004.6 461.7 1005.3z" stroke="none" fill="none" />
            <path d="M545.7 6.3C 698.30005 6.3 850.9 6.3 1003.7 6.3C 1003.7 160.7 1003.7 315 1003.3 470C 1002.5 469.5 1001.89996 468.3 1001.7 467.1C 1000.3 453.9 999.7 440.5 997.4 427.5C 994.2 409.6 990 391.8 985.60004 374.1C 977.2 340.30002 964.7 308 948.10004 277.5C 937.60004 258.2 926.50006 239.1 914.2 220.9C 903.3 204.79999 891.10004 189.5 878.3 174.79999C 866.89996 161.69998 854.2 149.69998 841.5 137.9C 831.2 128.29999 820.2 119.299995 809.2 110.49999C 786.5 92.2 761.9 76.79999 736.10004 63.199993C 704.4 46.499992 671.30005 33.199993 636.60004 23.999992C 619.4 19.399992 602.00006 15.699992 584.50006 12.599993C 572.4001 10.399993 560.10004 9.799993 547.9001 8.299993C 547.2 8.1 546.5 6.9 545.7 6.3z" stroke="none" fill="none" />
            <path d="M3.7 469.3C 3.7 315 3.7 160.79999 3.7 6.299988C 156.09999 6.299988 308.40002 6.299988 461.40002 6.699988C 457.60004 7.799988 453.2 8.599988 448.7 9.299988C 429.7 12.299988 410.40002 14.399988 391.6 18.599987C 354.7 26.799988 319.2 39.399986 285.3 56.099987C 254.09999 71.39999 224.49998 89.09999 197.4 110.999985C 185.2 120.89999 172.7 130.59999 161.4 141.39998C 149.09999 153.09998 137.2 165.49998 126.299995 178.49997C 113.399994 193.79997 101.299995 209.69997 89.7 225.89996C 75.2 246.09996 62.999996 267.69995 52.699997 290.39996C 46.1 305.09998 39.299995 319.79996 33.799995 334.89996C 25.499996 357.39996 18.999996 380.39996 14.299995 403.89996C 10.3 424.4 7 445 5.7 466C 5.6 467.1 4.4 468.2 3.7 469.3z" stroke="none" fill="none" />
            <path d="M3.7 469.7C 4.4 468.1 5.6 467.1 5.6 465.90002C 6.8999996 445.00003 10.2 424.30002 14.299999 403.80002C 19 380.30002 25.5 357.2 33.8 334.80002C 39.399998 319.7 46.1 305.00003 52.699997 290.30002C 62.899998 267.6 75.2 246.00002 89.7 225.80002C 101.299995 209.60002 113.5 193.70001 126.299995 178.40002C 137.29999 165.40002 149.09999 153.00003 161.4 141.30002C 172.79999 130.50002 185.2 120.80002 197.4 110.90002C 224.4 89.000015 254.09999 71.30002 285.3 56.000015C 319.3 39.300014 354.69998 26.700016 391.59998 18.500015C 410.39996 14.300015 429.59998 12.200015 448.69998 9.200015C 453.09998 8.500015 457.59998 7.800015 461.8 6.600015C 489.3 6.200015 517 6.200015 545.1 6.200015C 546.3 6.900015 547 8.000015 547.89996 8.100015C 560.1 9.500014 572.49994 10.200014 584.49994 12.400015C 601.99994 15.600015 619.39996 19.300014 636.5999 23.800014C 671.2999 33.000015 704.3999 46.300014 736.0999 63.000015C 761.8999 76.60001 786.49994 92.000015 809.1999 110.30002C 820.1999 119.20002 831.1999 128.10002 841.4999 137.70001C 854.1999 149.6 866.8999 161.6 878.29987 174.6C 891.09985 189.3 903.29987 204.6 914.1999 220.70001C 926.4999 238.90001 937.5999 258 948.0999 277.30002C 964.6999 307.80002 977.1999 340.1 985.5999 373.90002C 989.99994 391.60004 994.1999 409.40002 997.3999 427.30002C 999.6999 440.40002 1000.2999 453.7 1001.6999 466.90002C 1001.79987 468.10004 1002.4999 469.30002 1003.29987 470.2C 1003.6999 493.40002 1003.6999 516.7 1003.6999 540.5C 1002.9999 542.1 1001.79987 543.1 1001.79987 544.3C 1000.1999 568.7 996.9999 592.89996 990.79987 616.5C 985.4999 636.7 980.1999 656.9 973.39984 676.6C 967.9998 692.39996 960.59985 707.6 953.59985 722.89996C 943.6998 744.8 931.59985 765.6 917.79987 785.3C 907.9999 799.2 897.89984 812.89996 886.89984 826C 875.4998 839.5 863.4998 852.5 850.9998 865C 833.7998 882.2 814.89984 897.6 795.0998 911.9C 770.4998 929.60004 744.4998 945 717.0998 957.9C 685.4998 972.80005 652.69977 984.60004 618.4998 992C 601.5998 995.7 584.4998 998.2 567.4998 1001.1C 560.9998 1002.19995 554.39984 1002.5 547.89984 1003.19995C 546.9998 1003.2999 546.1998 1003.89996 545.4998 1004.69995C 517.9998 1005.1 490.2998 1005.1 462.19983 1005.1C 460.59982 1004.39996 459.59982 1003.3 458.39984 1003.19995C 444.09985 1001.39996 429.69983 1000.2999 415.49985 997.7999C 400.89984 995.2999 386.39984 991.7999 372.09985 987.99994C 347.29987 981.2999 323.19986 972.69995 299.79987 962.19995C 270.79987 949.19995 243.09987 933.7999 217.29987 915.19995C 203.09987 904.99994 189.39987 894.1 176.09987 882.89996C 164.89987 873.39996 154.19987 863.19995 143.89987 852.69995C 125.09987 833.49994 107.79987 812.99994 92.99987 790.6C 81.39987 773.1 70.799866 754.89996 60.59987 736.6C 45.399868 709.19995 33.99987 680.1 25.099869 650.1C 18.29987 627.39996 12.899869 604.5 9.699869 581C 8.099869 568.8 6.9998693 556.5 5.5998693 544.3C 5.4998693 543.39996 4.8998694 542.6 4.0998693 541.89996C 3.7 518.3 3.7 494.2 3.7 469.7zM748.3 933.4C 764 923 780 913.2 795.2 902.10004C 809.60004 891.60004 823.7 880.50006 836.8 868.4C 851.3 854.80005 865 840.30005 878 825.2C 889.7 811.8 900.4 797.5 910.7 782.9C 929.10004 757 944 729 956.5 699.80005C 966.5 676.60004 974.6 652.7001 980.9 628.2001C 986.30005 606.80005 990.7 585.2001 992.80005 563.2001C 994.30005 546.80005 995.80005 530.4001 996.7001 514.00006C 997.1001 505.90005 996.30005 497.80005 995.80005 489.70007C 995.2001 479.20007 994.80005 468.60007 993.80005 458.10007C 992.4 444.60007 991.2001 430.90005 988.7001 417.60007C 983.50006 390.70007 976.50006 364.40005 967.1001 338.50006C 957.0001 310.60007 944.5001 284.00006 929.8001 258.30005C 912.4001 227.90005 891.70013 199.80005 868.0001 174.10005C 847.0001 151.40005 824.6001 130.10005 799.70013 111.70005C 776.20013 94.30005 751.70013 78.400055 725.40015 65.60005C 706.8002 56.60005 687.60016 48.500053 668.20013 41.300053C 635.0001 29.200052 600.8001 20.700052 565.60016 17.200052C 548.10016 15.400052 530.5002 14.200052 512.90015 13.200052C 502.10016 12.600052 491.20013 12.500052 480.40015 13.200052C 465.20013 14.300053 450.00015 16.100052 434.90015 18.100052C 422.10016 19.800053 409.30014 21.500051 396.80014 24.800053C 375.40015 30.400053 354.00015 36.300053 333.20013 43.70005C 315.30014 50.00005 298.00012 58.20005 280.80014 66.30005C 270.20013 71.30005 260.20013 77.500046 250.10014 83.500046C 222.20015 100.20004 195.90015 119.30005 172.20013 141.60004C 156.90013 156.00003 142.40013 171.40004 128.60013 187.20004C 117.20013 200.30005 106.90013 214.30005 96.90013 228.50005C 78.50013 254.40004 63.600132 282.40005 51.00013 311.60004C 41.00013 334.80005 32.90013 358.70004 26.70013 383.20004C 21.30013 404.60004 16.80013 426.20004 14.90013 448.20004C 13.40013 464.80005 11.90013 481.30005 11.00013 498.00003C 10.60013 505.70004 11.400129 513.5 11.900129 521.30005C 12.800129 535.30005 13.300129 549.30005 15.00013 563.2001C 17.00013 579.6001 19.60013 595.9001 23.00013 612.1001C 30.50013 648.3001 42.70013 683.1001 58.60013 716.5001C 71.20013 742.90015 85.60013 768.40015 103.10013 791.8001C 114.90013 807.5001 127.00013 823.1001 140.20013 837.70013C 151.70013 850.5001 164.30014 862.40015 177.30014 873.8001C 191.00014 885.8001 205.10014 897.5001 219.90015 908.0001C 249.30014 929.0001 280.60016 946.90015 314.20013 960.0001C 334.50012 968.0001 355.20013 975.20013 376.20013 980.90015C 395.60013 986.20013 415.60013 989.90015 435.50012 993.0001C 452.50012 995.70013 469.8001 997.20013 487.00012 997.90015C 502.40012 998.60016 517.90015 997.70013 533.3001 997.0001C 545.8001 996.40015 558.4001 995.8001 570.70013 993.90015C 587.60016 991.3002 604.40015 987.90015 621.10016 984.0001C 652.20013 976.90015 682.10016 966.20013 711.0002 952.5001C 723.2 946.8 735.4 940.1 748.3 933.4z" stroke="none" fill="#8ABE53" fill-rule="nonzero" />
            <path d="M748 933.6C 735.4 940.1 723.2 946.8 710.7 952.69995C 681.9 966.2999 651.9 977.1 620.8 984.19995C 604.1 987.99994 587.3 991.39996 570.39996 994.1C 558.1 996 545.49994 996.69995 532.99994 997.19995C 517.5999 997.89996 502.09995 998.69995 486.69995 998.1C 469.49994 997.39996 452.19995 995.8 435.19995 993.19995C 415.29996 990.1 395.29996 986.49994 375.89996 981.1C 354.89996 975.3 334.19995 968.1 313.89996 960.19995C 280.29996 946.99994 248.99997 929.1 219.59996 908.19995C 204.79996 897.6 190.69997 885.99994 176.99997 873.99994C 164.09998 862.5999 151.39996 850.69995 139.89996 837.89996C 126.799965 823.3 114.59996 807.8 102.799965 791.99994C 85.299965 768.49994 70.89996 743.0999 58.299965 716.69995C 42.399963 683.2999 30.199965 648.6 22.699966 612.2999C 19.399967 596.19995 16.799967 579.7999 14.699966 563.3999C 12.999967 549.4999 12.499967 535.4999 11.599966 521.4999C 11.099966 513.6999 10.299966 505.89987 10.699966 498.1999C 11.599966 481.59988 13.099966 464.99988 14.599966 448.3999C 16.599966 426.3999 20.999966 404.7999 26.399967 383.3999C 32.599968 358.8999 40.699966 334.9999 50.699966 311.7999C 63.299965 282.59988 78.19997 254.69989 96.59997 228.69989C 106.59997 214.59988 116.89996 200.4999 128.29997 187.39989C 142.09998 171.59988 156.59998 156.19989 171.89996 141.7999C 195.59996 119.5999 221.79996 100.399895 249.79996 83.6999C 259.89996 77.6999 269.89996 71.399895 280.49997 66.49989C 297.69998 58.399895 314.99997 50.299892 332.89996 43.899895C 353.69995 36.499893 375.09998 30.599895 396.49997 24.999895C 408.89996 21.799894 421.79996 20.099895 434.59998 18.299896C 449.69998 16.199896 464.89996 14.499896 480.09998 13.399897C 490.89996 12.599896 501.8 12.799896 512.6 13.399897C 530.19995 14.299896 547.8 15.599896 565.3 17.399897C 600.5 20.899897 634.8 29.399897 667.89996 41.499897C 687.3 48.599895 706.49994 56.699898 725.1 65.7999C 751.39996 78.5999 775.89996 94.49989 799.39996 111.899895C 824.3 130.2999 846.8 151.5999 867.69995 174.2999C 891.39996 199.9999 912.1 228.0999 929.49994 258.49988C 944.19995 284.1999 956.69995 310.79987 966.7999 338.6999C 976.19995 364.49988 983.19995 390.8999 988.3999 417.7999C 990.9999 431.09988 992.1999 444.7999 993.4999 458.2999C 994.59985 468.7999 994.9999 479.3999 995.4999 489.8999C 995.8999 497.9999 996.79987 506.0999 996.3999 514.1999C 995.4999 530.5999 993.9999 546.9999 992.4999 563.3999C 990.4999 585.3999 986.09985 606.9999 980.59985 628.3999C 974.39984 652.8999 966.1998 676.7999 956.1998 699.9999C 944 729.1 929 757 910.7 783C 900.4 797.5 889.7 811.8 878 825.3C 865 840.3 851.3 854.89996 836.8 868.5C 823.8 880.6 809.6 891.7 795.2 902.2C 780.1 913.1 764 923 748 933.6zM790.7 890.8C 791.5 890 792.3 889.1 793.2 888.39996C 808.3 875.6 824.10004 863.6 838.2 849.89996C 852.9 835.49994 866.3 819.6 879.60004 803.8C 899.30005 780.5 915.30005 754.6 929.50006 727.7C 944.60004 699 956.60004 669 965.30005 637.8C 972.00006 613.7 977.7001 589.39996 979.7001 564.3C 981.1001 547.2 982.7001 530.2 983.6001 513.1C 984.0001 504.19998 983.3001 495.19998 982.7001 486.3C 981.9001 473.3 981.4001 460.3 979.6001 447.4C 977.2001 429.9 974.4001 412.5 970.6001 395.3C 963.0001 360.4 951.2001 326.8 934.8001 295.09998C 923.8001 273.8 911.4001 253.09998 898.4001 232.89998C 883.8001 210.19998 865.9001 189.79999 847.2001 170.39998C 838.6001 161.49998 829.4001 152.99998 819.9001 145.09998C 806.4001 133.79997 792.8001 122.699974 778.50006 112.39998C 749.2001 91.29998 717.60004 74.19998 683.9001 61.09998C 667.9001 54.79998 651.4001 49.499977 635.00006 44.39998C 614.7001 38.09998 594.00006 33.59998 572.80005 31.299978C 556.50006 29.499979 540.2001 26.899979 523.80005 26.59998C 502.10004 26.19998 480.40005 27.499979 458.70004 28.399979C 449.00003 28.799978 439.30005 29.699978 429.80005 31.499979C 411.90005 34.999977 394.10004 38.999977 376.40005 43.29998C 350.7 49.5 326.3 59 302.4 70C 274.9 82.7 248.5 97.6 224.09999 115.6C 209.7 126.2 195.79999 137.5 182.4 149.3C 171.7 158.7 161.9 169 152.2 179.40001C 142.9 189.40001 133.59999 199.50002 125.299995 210.40001C 111 229 97.9 248.4 86.4 268.8C 72.700005 293.09998 61.100002 318.19998 51.7 344.5C 39.7 378 31.2 412.3 27.8 447.7C 26.199999 464.6 24.8 481.5 23.9 498.40002C 23.5 507.30002 24.199999 516.30005 24.8 525.2C 25.9 540.8 26.699999 556.4 28.9 571.9C 31.5 590.30005 34.7 608.7 39.2 626.80005C 46.8 657.4 58 686.80005 71.8 715.2001C 82.8 737.7001 95.5 759.30005 109.8 779.9001C 124.100006 800.50006 139.90001 819.8001 157.1 837.8001C 168.70001 850.0001 181.70001 860.9001 194.20001 872.20013C 211.30002 887.5001 230.20001 900.5001 249.6 912.8001C 280 932.1001 312.30002 947.4001 346.2 959.20013C 374.80002 969.10016 404 976.8001 434.1 980.20013C 451.2 982.20013 468.4 984.3001 485.6 985.0001C 502 985.70013 518.5 984.70013 534.9 984.20013C 544.30005 983.90015 553.80005 983.60016 563 982.10016C 581 979.20013 599.1 976.20013 616.9 972.10016C 648.30005 964.90015 678.4 954.0002 707.60004 940.3002C 736.7 926.6 764 910 790.7 890.8z" stroke="none" fill="none" />
            <path d="M790.4 891C 764 910 736.7 926.6 707.60004 940.3C 678.50006 954 648.30005 964.89996 616.9 972.1C 599.10004 976.19995 581.10004 979.19995 563 982.1C 553.8 983.6 544.3 983.89996 534.9 984.19995C 518.5 984.7999 502.00003 985.69995 485.60004 984.99994C 468.40002 984.2999 451.20004 982.19995 434.10004 980.19995C 404.00003 976.69995 374.80005 969.1 346.20004 959.19995C 312.30005 947.39996 280.00006 932.1 249.60004 912.7999C 230.20004 900.49994 211.30003 887.49994 194.20004 872.19995C 181.60004 860.99994 168.70004 849.99994 157.10004 837.7999C 139.80003 819.7999 124.00004 800.3999 109.80003 779.8999C 95.50003 759.2999 82.80003 737.7999 71.80003 715.1999C 58.000034 686.79987 46.800034 657.3999 39.200035 626.79987C 34.700035 608.79987 31.600035 590.39984 28.900036 571.89984C 26.700035 556.4998 25.900036 540.79987 24.800035 525.1998C 24.200035 516.2998 23.400036 507.29984 23.900036 498.39984C 24.700035 481.49985 26.200035 464.49985 27.800035 447.69983C 31.200035 412.19983 39.800034 377.89984 51.700035 344.39984C 61.100037 318.19983 72.700035 292.99985 86.40004 268.69983C 98.00004 248.29984 111.10004 228.89983 125.30004 210.39983C 133.60004 199.59982 142.90004 189.39983 152.20004 179.39983C 161.90004 168.99983 171.80005 158.69983 182.40004 149.29982C 195.80003 137.49982 209.80003 126.19982 224.10004 115.59982C 248.50003 97.59982 274.80005 82.69982 302.40002 69.999825C 326.30002 58.999825 350.7 49.399826 376.30002 43.299824C 394.00003 38.999825 411.80002 34.999825 429.7 31.499825C 439.2 29.699825 448.90002 28.799824 458.6 28.399824C 480.30002 27.399824 502 26.199823 523.7 26.599825C 540.10004 26.899824 556.4 29.499825 572.7 31.299824C 593.9 33.599823 614.60004 38.099823 634.9 44.399826C 651.4 49.499825 667.80005 54.799828 683.80005 61.099827C 717.4 74.29983 749.00006 91.399826 778.4 112.399826C 792.7 122.59982 806.30005 133.79982 819.80005 145.09982C 829.30005 153.09982 838.50006 161.49982 847.10004 170.39983C 865.9 189.79982 883.7 210.19983 898.30005 232.89983C 911.30005 253.09982 923.7001 273.79984 934.7001 295.09982C 951.1001 326.79984 962.9001 360.39984 970.50006 395.2998C 974.2001 412.49982 977.10004 429.99982 979.50006 447.3998C 981.30005 460.2998 981.80005 473.2998 982.60004 486.2998C 983.2 495.1998 984.00006 504.1998 983.50006 513.0998C 982.60004 530.19977 981.00006 547.2998 979.60004 564.2998C 977.60004 589.2998 971.9 613.6998 965.2 637.7998C 956.5 668.9998 944.5 698.9998 929.4 727.6998C 915.2 754.59985 899.2 780.4998 879.5 803.7998C 866.2 819.5998 852.8 835.4998 838.1 849.8998C 824 863.69977 808.19995 875.69977 793.1 888.3998C 792.4 889.2 791.6 890 790.4 891zM230.3 521.7C 229.7 520.7 229 519.8 228.6 518.8C 224.90001 508.5 221.40001 498.09998 217.70001 487.69998C 216.30002 483.69998 215.90001 480.4 221.70001 480.09998C 222.40001 480.09998 223.1 478.99997 223.70001 478.49997C 223.1 477.89996 222.50002 476.79996 221.80002 476.79996C 213.00002 476.69995 204.20001 476.69995 195.30002 476.79996C 194.70001 476.79996 193.80002 477.79996 193.50002 478.59995C 193.40001 478.89993 194.40001 480.09995 194.90001 480.19995C 201.40001 480.59995 203.3 485.69995 205.1 490.49994C 210.70001 505.49994 216.1 520.49994 221.6 535.49994C 222.5 537.89996 223 539.99994 226.40001 540.0999C 230.1 540.1999 230.70001 537.8999 231.70001 535.3999C 235.70001 524.5999 239.70001 513.8999 243.80002 503.1999C 244.40002 501.6999 245.00002 500.2999 246.10002 497.7999C 250.50002 511.09988 254.60002 523.1999 258.50003 535.3999C 259.30002 537.9999 259.80002 540.1999 263.60004 540.1999C 267.20004 540.1999 268.00003 538.1999 268.90002 535.5999C 274.60004 519.99994 280.30002 504.3999 286.00003 488.69992C 287.40002 484.79993 289.20004 481.39993 293.80002 480.39993C 294.6 480.19992 295.2 478.99994 295.80002 478.29993C 294.90002 477.79993 293.90002 476.99994 293.00003 476.99994C 287.30002 476.89993 281.70004 476.89993 276.00003 476.99994C 275.00003 476.99994 274.10004 477.89993 273.10004 478.29993C 274.00003 478.99994 274.80005 480.29993 275.70004 480.39993C 279.60004 480.79993 280.60004 483.19992 279.60004 486.29993C 275.80005 498.29993 271.80005 510.19992 267.80005 522.19995C 263.10004 510.29996 259.40005 498.59995 255.90005 486.79996C 255.00006 483.69995 255.60005 481.19995 259.50006 480.49997C 260.50006 480.29996 261.30005 479.09998 262.20007 478.39996C 261.10007 477.89996 260.00006 476.99997 258.9001 476.99997C 251.70009 476.89996 244.60008 476.89996 237.40009 476.99997C 236.20009 476.99997 234.90009 477.99997 233.70009 478.49997C 234.70009 479.29996 235.60008 480.39996 236.8001 480.89996C 241.70009 482.89996 243.50009 486.29996 241.70009 491.09998C 238.2 500.9 234.5 511 230.3 521.7zM515 508.8C 515 515.6 514.9 522.5 514.9 529.3C 514.9 532.39996 513.9 534.8 510.40002 535.5C 509.50003 535.7 508.80002 536.8 508.00003 537.4C 509.00003 538 510.00003 539 511.00003 539C 517 539.2 523 539.1 529 539C 529.9 539 530.8 538.1 531.7 537.6C 531.2 536.89996 530.8 536 530.10004 535.5C 524.80005 532 524.80005 523.2 530.7 519.2C 534 524.3 537.3 529.3 540.10004 533.7C 538.10004 535.60004 537.00006 536.7 535.9 537.8C 537.4 538.2 538.80005 539 540.30005 539C 546.10004 539.1 552.00006 539.1 557.80005 539C 558.80005 539 559.80005 538 560.80005 537.4C 560.00006 536.7 559.30005 536 558.50006 535.4C 557.00006 534.4 555.00006 533.9 554.00006 532.60004C 548.80005 525.7 543.9001 518.7 538.50006 511.30005C 544.2001 507.00006 547.80005 500.70004 555.2001 499.30005C 555.80005 499.20004 556.30005 498.10004 556.9001 497.40005C 556.1001 497.00006 555.4001 496.20004 554.6001 496.20004C 548.1001 496.10004 541.7001 496.10004 535.2001 496.10004C 535.00006 496.70004 534.80005 497.40002 534.7001 498.00003C 537.00006 498.80002 539.30005 499.60004 542.00006 500.50003C 536.80005 505.40002 531.9001 510.00003 526.50006 515C 526.50006 500.8 526.50006 486.7 526.50006 471.7C 520.00006 473.40002 513.7001 472.7 507.60007 476.7C 516.7001 477.6 515.00006 483.90002 515.2001 489.2C 515.1 495.5 515 501.6 515 508.8zM470 539.1C 471.2 539.1 472.4 539.3 473.5 539C 474.3 538.8 474.9 538 475.6 537.5C 475 536.8 474.5 535.6 473.9 535.6C 468.9 535.3 468.8 531.8 468.8 528.1C 468.8 523.3 468.59998 518.39996 468.9 513.6C 469.1 510.89996 469.8 507.99997 471 505.49997C 472.7 501.89996 475.8 500.09998 480 500.69998C 484.3 501.4 486.6 504.09998 486.8 508.09998C 487.19998 515.39996 487.3 522.69995 487.3 530C 487.3 532.9 486.09998 535.1 482.69998 535.5C 481.9 535.6 481.19998 536.8 480.49997 537.5C 481.39996 538 482.29996 538.9 483.19998 539C 489.9 539.1 496.49997 539.1 503.19998 539C 503.99997 539 504.8 537.9 505.59998 537.3C 504.89996 536.7 504.3 535.6 503.59998 535.6C 499.19998 535.19995 498.89996 532.1 498.8 528.69995C 498.69998 522.99994 498.9 517.39996 498.59998 511.69995C 498.3 505.39996 495.89996 499.79996 489.89996 496.99994C 483.49997 493.99994 476.89996 494.49994 470.89996 498.49994C 469.59998 499.39993 468.39996 500.39993 466.79996 501.49994C 466.09995 499.09995 465.59995 497.29993 464.89996 494.89993C 459.89996 497.39993 453.89996 495.59995 450.39996 499.09995C 452.89996 501.69995 456.39996 503.49994 456.59998 505.59995C 457.39996 513.69995 457.3 521.89996 456.99997 529.99994C 456.89996 531.7999 454.39996 533.49994 452.89996 535.19995C 452.09998 536.1 451.19995 536.69995 450.29996 537.49994C 451.39996 537.99994 452.49997 538.89996 453.59995 538.89996C 458.7 539.1 463.9 539.1 470 539.1zM640 526.5C 639.7 524.5 639.4 522.6 639.1 520.6C 638 522.19995 636.5 523.6 635.8 525.39996C 633.8 530.99994 629.89996 533.69995 624.2 534.1C 620.7 534.3 617.2 534.39996 613.7 534.19995C 606.4 533.7999 603.8 531.19995 603.7 523.99994C 603.60004 511.99994 603.60004 499.99994 603.7 488.09995C 603.7 483.89993 604.60004 480.39993 609.9 480.09995C 610.60004 480.09995 611.30005 478.99994 612 478.49994C 611.2 477.89993 610.4 476.79993 609.6 476.69995C 602.1 476.59995 594.6 476.59995 587.1 476.69995C 586.19995 476.69995 585.3 477.69995 584.39996 478.19995C 585.1 478.89996 585.8 480.09995 586.6 480.19995C 590.1 480.69995 591.6 482.69995 591.6 485.99994C 591.69995 500.49994 591.69995 514.89996 591.6 529.39996C 591.6 532.6 590.19995 534.69995 586.8 535.39996C 585.6 535.6 584.6 536.69995 583.5 537.39996C 584.8 537.99994 586.2 538.99994 587.5 538.99994C 600.8 539.0999 614.1 539.0999 627.4 539.0999C 639.3 539.1 639.3 539.1 640 526.5zM380.8 514.8C 380.8 505.8 380.8 496.8 380.8 487.8C 380.8 483.8 381.8 480.5 386.69998 480.09998C 387.49997 479.99997 388.19998 478.8 388.99997 478.19998C 388.09998 477.69998 387.19998 476.69998 386.29996 476.69998C 378.79996 476.59998 371.29996 476.59998 363.79996 476.69998C 362.99997 476.69998 362.19995 477.49997 361.39996 477.99997C 362.09998 478.79996 362.69995 480.09998 363.39996 480.19998C 368.09998 480.8 368.69995 484.09998 368.69995 487.8C 368.69995 501 368.69995 514.1 368.69995 527.3C 368.69995 531.7 367.89996 535.3 362.39996 535.6C 361.69995 535.6 361.09998 536.69995 360.49997 537.3C 361.29996 537.89996 362.09998 539 362.89996 539C 380.39996 539.1 397.79996 539.1 415.29996 539.1C 415.69995 538.1 416.09995 537.5 416.09995 536.89996C 416.39993 532.8 416.79996 528.6 416.89993 524.39996C 416.89993 523.19995 416.09995 521.89996 415.69992 520.6C 414.89993 521.6 413.69992 522.5 413.19992 523.69995C 410.19992 531.69995 407.29993 533.89996 398.79993 534.19995C 395.99994 534.2999 393.0999 534.2999 390.29993 534.1C 383.19992 533.6 380.79993 531.1 380.5999 524.1C 380.7 521.4 380.8 518.6 380.8 514.8zM662.5 539.2C 665.8 539.3 669.2 539.8 672.4 539.3C 681.5 537.8 688.10004 532.8 690.9 523.89996C 693.4 515.8 691.80005 508.39996 685.60004 502.29996C 678.50006 495.29996 667.10004 493.39996 657.7 497.49997C 649.10004 501.29996 644.2 509.19998 644.60004 518.6C 645.1 528.1 651 535.2 662.5 539.2zM760.8 514.9C 756.8 516.9 752.6 518.5 748.8 520.9C 743.89996 524 742.3 528.30005 744 532.80005C 745.8 537.60004 749.7 539.4 754.6 539.50006C 760.8 539.60004 765.39996 536.7001 769 531.80005C 771.6 538.80005 773.7 540.4 779.3 539.4C 782.3 538.9 785.5 538.2 785.6 533.4C 779.6 535.30005 779.6 531.4 779.5 527.7C 779.3 520.4 779.3 513.10004 778.9 505.80002C 778.60004 500.50003 775.5 496.80002 770.30005 496.30002C 764.4 495.7 758.4 496.1 752.50006 496.50003C 750.7001 496.60004 748.4001 497.90002 747.50006 499.30002C 746.30005 501.2 745.9001 503.90002 746.10004 506.1C 746.2 507.1 748.7 508.80002 749.80005 508.6C 751.80005 508.2 753.7001 506.7 755.4 505.4C 756.2 504.8 756.2 503 757 502.4C 758.7 501.1 760.9 499.4 762.6 499.5C 764.39996 499.7 766.8 501.6 767.6 503.4C 770.3 509.4 768.9 511.4 760.8 514.9zM298 502C 289.7 511.9 289.7 525.6 298 533.7C 305.9 541.4 320.4 541.8 329.1 534.5C 330.2 533.5 330.7 531.7 331.4 530.2C 329.9 530.5 328.1 530.4 326.9 531.2C 315.6 538.3 306 533.7 304.3 520.5C 303.8 516.3 304.59998 514.4 309.4 514.6C 317.1 514.89996 324.9 514.69995 332.6 514.69995C 333.9 503.69995 328.1 496.39996 317.9 495.39996C 310.6 494.7 304 496.5 298 502zM795.8 517.8C 795.8 520.6 795.8 523.5 795.8 526.3C 795.8 530.5 796.1 534.89996 790.1 535.7C 789.6 535.8 788.69995 537.10004 788.89996 537.4C 789.3 538.10004 790.1 539 790.8 539C 797.8 539.1 804.8 539.1 811.8 539C 812.5 539 813.39996 538.2 813.8 537.5C 814 537.2 813.1 535.8 812.7 535.7C 806.5 535.10004 807.2 530.3 807.10004 526.3C 806.9 510.3 807.00006 494.4 807.00006 478.4C 807.00006 476.5 807.00006 474.5 807.00006 472C 800.30005 473.2 794.00006 473.1 787.60004 476.1C 795.60004 480 795.7 480 795.7 488.80002C 795.8 498.1 795.8 507.5 795.8 517.8zM711.8 508.2C 713 504.40002 714.7 501.1 719.1 500.2C 723.8 499.30002 725.1 503.2 727.6 505.7C 729.5 507.5 732.3 508.7 735 509.40002C 735.8 509.60004 738.4 506.7 738.1 505.80002C 737.3 503.2 736.1 499.40002 734 498.6C 729.2 496.7 723.8 495.4 718.7 495.5C 708.8 495.7 701 502.6 698.9 511.6C 696.60004 521.5 700 531.1 707.60004 535.8C 715.7 540.89996 728.4 540.1 735.4 534.3C 737.5 532.5 738.2 531.1 735.30005 529.39996C 733.9 530.19995 732.7001 530.89996 731.4 531.6C 720.60004 536.89996 712.4 532.69995 711.10004 520.69995C 710.6 517 711.4 513 711.8 508.2zM428 527.5C 427.9 531.3 427.7 535 422.6 535.6C 422 535.69995 421.5 536.89996 421 537.6C 421.8 538.1 422.5 539 423.3 539C 430.09998 539.1 436.9 539.1 443.69998 539C 444.59998 539 445.49997 538 446.4 537.5C 445.6 536.8 445 535.6 444.1 535.5C 440.4 534.9 439.7 532.4 439.7 529.4C 439.6 521.10004 439.6 512.80005 439.6 504.50003C 439.6 501.60004 439.6 498.70004 439.6 495.80002C 426.9 496.6 422.30002 497.80002 420.7 501.30002C 428.2 500.30002 427.90002 505.30002 428 510.2C 427.9 515.6 428 521.1 428 527.5zM439.3 481C 440.59998 477.2 440 473.9 436 472.4C 432.9 471.19998 429.5 471.9 428.5 475.19998C 427.8 477.4 428.4 480.99997 429.8 482.69998C 432.7 485.6 436.2 484.8 439.3 481z" stroke="none" fill="#8ABE53" fill-rule="nonzero" />
            <path d="M230.5 521.4C 234.5 511.00003 238.2 500.90002 241.9 490.7C 243.59999 485.90002 241.79999 482.5 237 480.5C 235.8 480 234.9 478.9 233.9 478.1C 235.09999 477.6 236.29999 476.6 237.59999 476.6C 244.79999 476.5 251.9 476.5 259.09998 476.6C 260.19998 476.6 261.3 477.5 262.39996 478C 261.49997 478.7 260.69995 479.9 259.69995 480.1C 255.79996 480.80002 255.19995 483.4 256.09995 486.4C 259.59995 498.19998 263.19995 509.9 267.99994 521.8C 271.99994 509.9 275.99994 497.9 279.79993 485.9C 280.79993 482.8 279.79993 480.3 275.89993 480C 274.99994 479.9 274.09995 478.6 273.29993 477.9C 274.29993 477.4 275.19992 476.6 276.19992 476.6C 281.89993 476.5 287.4999 476.5 293.19992 476.6C 294.0999 476.6 295.0999 477.5 295.9999 477.9C 295.2999 478.6 294.7999 479.9 293.9999 480C 289.3999 481 287.5999 484.4 286.19992 488.3C 280.4999 503.9 274.79993 519.5 269.0999 535.2C 268.19992 537.8 267.3999 539.8 263.79993 539.8C 259.99994 539.8 259.5999 537.6 258.69992 535C 254.69992 522.8 250.69992 510.7 246.29993 497.4C 245.29993 499.9 244.59993 501.3 243.99992 502.8C 239.99992 513.5 235.89992 524.3 231.89992 535C 230.99992 537.6 230.29991 539.8 226.59991 539.7C 223.09991 539.60004 222.59991 537.5 221.79991 535.10004C 216.39992 520.10004 210.89992 505.10004 205.29991 490.10004C 203.49991 485.30005 201.59991 480.20004 195.09991 479.80005C 194.59991 479.80005 193.59991 478.50006 193.69992 478.20004C 193.99992 477.50003 194.89992 476.40005 195.49992 476.40005C 204.29993 476.30005 213.19992 476.30005 221.99992 476.40005C 222.59993 476.40005 223.19992 477.50006 223.89992 478.10007C 223.19992 478.70007 222.59991 479.70007 221.89992 479.70007C 216.09991 480.00006 216.49992 483.30008 217.89992 487.30008C 221.49992 497.70007 225.09991 508.0001 228.79991 518.4001C 229 519.8 229.7 520.7 230.5 521.4z" stroke="none" fill="#FBFDF9" fill-rule="nonzero" />
            <path d="M515 508.3C 515 501.59998 515.1 495.5 514.9 489.3C 514.80005 484 516.5 477.69998 507.30002 476.8C 513.4 472.69998 519.7 473.4 526.2 471.8C 526.2 486.69998 526.2 500.8 526.2 515.1C 531.5 510.09998 536.5 505.49997 541.7 500.59998C 539 499.69998 536.7 498.89996 534.4 498.09998C 534.60004 497.49997 534.80005 496.8 534.9 496.19998C 541.4 496.19998 547.80005 496.19998 554.30005 496.3C 555.10004 496.3 555.80005 497.09998 556.60004 497.5C 556.00006 498.1 555.60004 499.2 554.9 499.4C 547.5 500.8 543.9 507 538.2 511.4C 543.5 518.8 548.5 525.9 553.7 532.7C 554.7 534 556.7 534.5 558.2 535.5C 559 536 559.7 536.8 560.5 537.5C 559.5 538.1 558.5 539.1 557.5 539.1C 551.7 539.3 545.8 539.3 540 539.1C 538.5 539.1 537.1 538.3 535.6 537.89996C 536.69995 536.8 537.89996 535.69995 539.8 533.8C 536.89996 529.39996 533.7 524.39996 530.39996 519.3C 524.49994 523.39996 524.49994 532.1 529.8 535.6C 530.5 536.1 530.89996 537 531.39996 537.69995C 530.49994 538.19995 529.6 539.1 528.69995 539.1C 522.69995 539.19995 516.69995 539.19995 510.69995 539.1C 509.69995 539.1 508.69995 538 507.69995 537.5C 508.49994 536.8 509.19995 535.8 510.09995 535.6C 513.6 534.89996 514.6 532.5 514.6 529.39996C 514.9 522.4 515 515.6 515 508.3z" stroke="none" fill="#FBFDF8" fill-rule="nonzero" />
            <path d="M469.5 539.1C 463.9 539.1 458.7 539.19995 453.6 539C 452.5 539 451.4 538.1 450.30002 537.6C 451.2 536.8 452.1 536.19995 452.90002 535.3C 454.40002 533.6 456.90002 531.89996 457.00003 530.1C 457.30002 522 457.40002 513.8 456.60004 505.69998C 456.40002 503.59998 453.00003 501.69998 450.40002 499.19998C 453.90002 495.69998 459.90002 497.49997 464.90002 494.99997C 465.60004 497.39996 466.10004 499.19998 466.80002 501.59998C 468.40002 500.39996 469.6 499.39996 470.90002 498.59998C 476.90002 494.49997 483.40002 494.09998 489.90002 497.09998C 496.00003 499.89996 498.30002 505.39996 498.60004 511.8C 498.90002 517.39996 498.70004 523.1 498.80005 528.8C 498.80005 532.1 499.20004 535.2 503.60004 535.7C 504.30005 535.8 504.90002 536.8 505.60004 537.4C 504.80005 538 504.00003 539.10004 503.20004 539.10004C 496.50003 539.2 489.90005 539.2 483.20004 539.10004C 482.30005 539.10004 481.40005 538.2 480.50003 537.60004C 481.20004 536.9 481.90002 535.7 482.70004 535.60004C 486.10004 535.2 487.30005 533.00006 487.30005 530.10004C 487.30005 522.80005 487.20004 515.50006 486.80005 508.20004C 486.60004 504.20004 484.20004 501.50003 480.00006 500.80005C 475.80005 500.10004 472.70007 502.00006 471.00006 505.60004C 469.80005 508.10004 469.10007 510.90002 468.90005 513.7C 468.60007 518.5 468.80005 523.3 468.80005 528.2C 468.80005 531.9 468.90005 535.4 473.90005 535.7C 474.50006 535.7 475.00006 537 475.60007 537.60004C 474.90005 538.10004 474.30008 538.9 473.50006 539.10004C 472.3 539.2 471.1 539 469.5 539.1z" stroke="none" fill="#FBFDF9" fill-rule="nonzero" />
            <path d="M640 527C 639.4 539.1 639.4 539.1 627.6 539.1C 614.3 539.1 601 539.1 587.69995 539C 586.39996 539 584.99994 537.9 583.69995 537.4C 584.7999 536.7 585.7999 535.60004 586.99994 535.4C 590.39996 534.7 591.7999 532.5 591.7999 529.4C 591.7999 514.9 591.7999 500.50003 591.7999 486.00003C 591.7999 482.80002 590.2999 480.70004 586.7999 480.20004C 585.99994 480.10004 585.2999 478.90005 584.5999 478.20004C 585.49994 477.70004 586.3999 476.70004 587.2999 476.70004C 594.7999 476.60004 602.2999 476.60004 609.7999 476.70004C 610.5999 476.70004 611.3999 477.80005 612.19995 478.50003C 611.49994 479.10004 610.7999 480.10004 610.1 480.10004C 604.89996 480.40002 604 483.90002 603.89996 488.10004C 603.89996 500.10004 603.8 512.10004 603.89996 524.00006C 603.99994 531.30005 606.6 533.9001 613.89996 534.2001C 617.39996 534.4001 620.89996 534.30005 624.39996 534.1001C 630.1 533.7001 633.99994 531.0001 635.99994 525.4001C 636.5999 523.6001 638.0999 522.2001 639.2999 520.6001C 639.4 522.6 639.7 524.6 640 527z" stroke="none" fill="#FAFCF7" fill-rule="nonzero" />
            <path d="M380.8 515.3C 380.8 518.6 380.69998 521.5 380.8 524.3C 381.09998 531.3 383.5 533.8 390.5 534.3C 393.3 534.5 396.2 534.5 399 534.39996C 407.5 534.1 410.4 531.89996 413.4 523.89996C 413.8 522.69995 415 521.8 415.9 520.8C 416.3 522.1 417.1 523.3 417.1 524.6C 417 528.8 416.6 532.89996 416.30002 537.1C 416.2 537.69995 415.80002 538.3 415.50003 539.3C 398.10004 539.3 380.60004 539.3 363.10004 539.2C 362.30005 539.2 361.50003 538.10004 360.70004 537.5C 361.30005 536.9 362.00003 535.8 362.60004 535.8C 368.10004 535.5 368.90002 531.89996 368.90002 527.5C 368.80002 514.3 368.90002 501.2 368.90002 488C 368.90002 484.2 368.30002 481 363.60004 480.4C 362.90002 480.3 362.30005 479 361.60004 478.19998C 362.40002 477.8 363.20004 476.9 364.00003 476.9C 371.50003 476.8 379.00003 476.8 386.50003 476.9C 387.40002 476.9 388.30002 477.9 389.20004 478.4C 388.40005 479.1 387.70004 480.3 386.90005 480.3C 382.00006 480.69998 381.00006 484 381.00006 488C 380.8 496.8 380.8 505.8 380.8 515.3z" stroke="none" fill="#FAFCF8" fill-rule="nonzero" />
            <path d="M662.1 539.1C 651 535.3 645.1 528.19995 644.69995 518.6C 644.2999 509.19998 649.19995 501.3 657.7999 497.49997C 667.19995 493.39996 678.5999 495.29996 685.69995 502.29996C 691.7999 508.39996 693.49994 515.7999 690.99994 523.89996C 688.19995 532.89996 681.5999 537.8 672.49994 539.3C 669.3 539.8 665.9 539.2 662.1 539.1zM666.6 500.2C 664.19995 502.30002 660.89996 504 659.6 506.6C 656.3 513.7 656.6 521.2 659.6 528.4C 661.1 532 663.69995 534.5 667.89996 534.7C 672.19995 534.8 675.19995 532.5 676.89996 528.8C 680.3 521.3 680.39996 513.6 676.89996 506.09998C 675.1 502.1 672.1 499.8 666.6 500.2z" stroke="none" fill="#FCFDFB" fill-rule="nonzero" />
            <path d="M761.2 514.8C 768.9 511.5 770.3 509.4 767.7 503.59998C 766.9 501.8 764.5 499.89996 762.7 499.69998C 760.9 499.49997 758.8 501.3 757.10004 502.59998C 756.30005 503.19998 756.30005 504.99997 755.50006 505.59998C 753.80005 506.99997 751.9001 508.39996 749.9001 508.8C 748.8001 509 746.3001 507.3 746.2001 506.3C 746.00006 504 746.50006 501.4 747.6001 499.5C 748.5001 498 750.8001 496.8 752.6001 496.7C 758.5001 496.30002 764.5001 495.90002 770.4001 496.5C 775.6001 497 778.7001 500.8 779.00006 506C 779.4001 513.3 779.4001 520.6 779.60004 527.9C 779.7 531.60004 779.7 535.5 785.7 533.60004C 785.7 538.4 782.4 539.10004 779.4 539.60004C 773.80005 540.60004 771.7 539.00006 769.10004 532.00006C 765.50006 537.00006 760.9 539.80005 754.7 539.7001C 749.7 539.6001 745.9 537.80005 744.10004 533.00006C 742.4 528.50006 744.00006 524.2001 748.9 521.10004C 752.6 518.6 756.8 516.9 761.2 514.8zM755.2 525.5C 754.3 528.8 755.4 531.5 758.7 532C 762.60004 532.6 766.2 530.9 767.5 527C 768.6 523.9 768.4 520.3 768.8 516.9C 768.3 516.5 767.8 516.10004 767.3 515.7C 763.4 518.7 759.5 521.8 755.2 525.5z" stroke="none" fill="#FBFDFA" fill-rule="nonzero" />
            <path d="M298.2 501.8C 303.90002 496.5 310.5 494.69998 317.80002 495.4C 328.00003 496.4 333.7 503.6 332.50003 514.7C 324.90002 514.7 317.10004 514.9 309.30002 514.60004C 304.6 514.4 303.7 516.30005 304.2 520.50006C 305.90002 533.7001 315.5 538.2001 326.80002 531.2001C 328.00003 530.4001 329.80002 530.50006 331.30002 530.2001C 330.50003 531.6001 330.1 533.50006 329.00003 534.50006C 320.30002 541.9001 305.70004 541.4001 297.90002 533.7001C 289.7 525.6 289.7 512 298.2 501.8zM321.5 505.4C 320.1 501.4 317.3 499.3 313.1 500.3C 308.4 501.4 306.1 504.8 305.6 510.09998C 310.2 510.09998 314.5 510.39996 318.7 509.89996C 319.7 509.8 320.6 507.5 321.5 505.4z" stroke="none" fill="#FCFDFB" fill-rule="nonzero" />
            <path d="M795.8 517.3C 795.8 507.5 795.8 498.19998 795.7 488.9C 795.60004 480.1 795.60004 480.1 787.60004 476.19998C 794.00006 473.09998 800.30005 473.3 807.00006 472.09998C 807.00006 474.59998 807.00006 476.59998 807.00006 478.49997C 807.00006 494.49997 806.9001 510.39996 807.10004 526.39996C 807.10004 530.39996 806.50006 535.19995 812.7 535.8C 813.2 535.8 814 537.3 813.8 537.6C 813.39996 538.3 812.5 539.1 811.8 539.1C 804.8 539.19995 797.8 539.19995 790.8 539.1C 790.1 539.1 789.2 538.19995 788.89996 537.5C 788.69995 537.2 789.6 535.9 790.1 535.8C 796 535 795.69995 530.6 795.8 526.39996C 795.8 523.4 795.8 520.6 795.8 517.3z" stroke="none" fill="#FCFDFB" fill-rule="nonzero" />
            <path d="M711.7 508.6C 711.4 513 710.60004 517 711.10004 520.9C 712.4 532.80005 720.60004 537.10004 731.4 531.80005C 732.7 531.10004 734 530.4 735.30005 529.60004C 738.10004 531.30005 737.50006 532.7 735.4 534.50006C 728.4 540.30005 715.7 541.00006 707.60004 536.00006C 700.00006 531.30005 696.60004 521.7001 698.9 511.80005C 701 502.80005 708.80005 495.90005 718.7 495.70004C 723.8 495.60004 729.2 496.90005 734 498.80005C 736 499.60004 737.3 503.30005 738.1 506.00006C 738.39996 506.90005 735.69995 509.80005 735 509.60007C 732.4 508.90005 729.5 507.80008 727.6 505.90005C 725 503.40005 723.8 499.50006 719.1 500.40005C 714.6 501.1 713 504.4 711.7 508.6z" stroke="none" fill="#FCFDFA" fill-rule="nonzero" />
            <path d="M428 527C 428 521 427.9 515.6 427.9 510.1C 427.9 505.2 428.19998 500.1 420.6 501.2C 422.1 497.7 426.7 496.40002 439.5 495.7C 439.5 498.6 439.5 501.5 439.5 504.40002C 439.5 512.7 439.6 521 439.6 529.30005C 439.6 532.4 440.4 534.9 444 535.4C 444.8 535.5 445.5 536.7 446.3 537.4C 445.4 537.9 444.5 538.9 443.59998 538.9C 436.8 539 429.99997 539 423.19998 538.9C 422.4 538.9 421.69998 538 420.9 537.5C 421.4 536.8 421.9 535.5 422.5 535.5C 427.7 535 427.9 531.3 428 527z" stroke="none" fill="#F8FBF5" fill-rule="nonzero" />
            <path d="M439.1 481.3C 436.2 484.8 432.7 485.59998 429.9 482.59998C 428.4 480.99997 427.9 477.39996 428.6 475.09998C 429.6 471.8 433 471.09998 436.1 472.3C 440 473.9 440.6 477.2 439.1 481.3z" stroke="none" fill="#FCFDFA" fill-rule="nonzero" />
            <path d="M667 500.2C 672 499.80002 675.1 502.2 676.9 506.1C 680.30005 513.6 680.30005 521.3 676.9 528.8C 675.2 532.6 672.2 534.89996 667.9 534.7C 663.7 534.60004 661.10004 532 659.60004 528.4C 656.60004 521.2 656.30005 513.7 659.60004 506.60004C 660.9 504 664.2 502.3 667 500.2z" stroke="none" fill="#8CBF56" fill-rule="nonzero" />
            <path d="M755.4 525.1C 759.5 521.69995 763.4 518.69995 767.4 515.69995C 767.9 516.1 768.4 516.49994 768.9 516.89996C 768.5 520.3 768.7 523.89996 767.60004 526.99994C 766.30005 530.7999 762.7 532.5999 758.80005 531.99994C 755.4 531.4 754.3 528.7 755.4 525.1z" stroke="none" fill="#90C15C" fill-rule="nonzero" />
            <path d="M321.5 505.8C 320.6 507.5 319.7 509.9 318.5 510C 314.3 510.5 310 510.2 305.4 510.2C 305.9 504.90002 308.19998 501.5 312.9 500.40002C 317.2 499.3 320 501.4 321.5 505.8z" stroke="none" fill="#8FC15A" fill-rule="nonzero" />
		</g>
	</g>
</g>
</svg>