<?xml version="1.0" encoding="utf-8"?>
<!-- Generator: Adobe Illustrator 27.0.1, SVG Export Plug-In . SVG Version: 6.00 Build 0)  -->
<svg version="1.1" id="Layer_1" xmlns="http://www.w3.org/2000/svg" xmlns:xlink="http://www.w3.org/1999/xlink" x="0px" y="0px"
	 viewBox="0 0 1006.4 1010" style="enable-background:new 0 0 1006.4 1010;" xml:space="preserve">
<style type="text/css">
	.st0{fill:none;}
	.st1{fill:#8ABE53;}
	.st2{fill:#FBFDF9;}
	.st3{fill:#FBFDF8;}
	.st4{fill:#FAFCF7;}
	.st5{fill:#FAFCF8;}
	.st6{fill:#FCFDFB;}
	.st7{fill:#FBFDFA;}
	.st8{fill:#FCFDFA;}
	.st9{fill:#F8FBF5;}
	.st10{fill:#8CBF56;}
	.st11{fill:#90C15C;}
	.st12{fill:#8FC15A;}
</style>
<path class="st0" d="M1003.7,541.3c0,154.6,0,309.2,0,464c-152.4,0-304.7,0-457.7-0.4c0.2-0.8,1-1.4,1.9-1.5
	c6.5-0.7,13.1-1,19.6-2.1c17.1-2.8,34.2-5.4,51-9.1c34.2-7.4,67-19.2,98.6-34.1c27.4-12.9,53.4-28.3,78-46
	c19.8-14.2,38.7-29.6,55.9-46.9c12.5-12.5,24.6-25.5,35.9-39c10.9-13,21.1-26.7,30.9-40.7c13.8-19.7,25.8-40.5,35.8-62.4
	c6.9-15.3,14.3-30.5,19.8-46.3c6.8-19.7,12.1-39.9,17.4-60.1c6.2-23.7,9.4-47.8,11-72.2C1001.9,543.4,1003.1,542.4,1003.7,541.3z"/>
<path class="st0" d="M461.7,1005.3c-152.6,0-305.2,0-458,0c0-154,0-308,0.4-462.7c0.8,0.2,1.4,1,1.5,1.9c1.4,12.2,2.5,24.5,4.1,36.7
	c3.1,23.5,8.6,46.4,15.4,69.1c9,30,20.4,59.1,35.5,86.5c10.2,18.4,20.9,36.5,32.4,54c14.8,22.4,32.1,43,50.9,62.1
	c10.3,10.5,21,20.7,32.2,30.2c13.3,11.3,27,22.2,41.2,32.3c25.8,18.6,53.5,33.9,82.5,47c23.4,10.5,47.5,19.1,72.3,25.8
	c14.3,3.9,28.8,7.3,43.4,9.8c14.2,2.5,28.6,3.5,42.9,5.4C459.6,1003.5,460.6,1004.6,461.7,1005.3z"/>
<path class="st0" d="M545.7,6.3c152.6,0,305.2,0,458,0c0,154.4,0,308.7-0.4,463.7c-0.8-0.5-1.4-1.7-1.6-2.9
	c-1.4-13.2-2-26.6-4.3-39.6c-3.2-17.9-7.4-35.7-11.8-53.4c-8.4-33.8-20.9-66.1-37.5-96.6c-10.5-19.3-21.6-38.4-33.9-56.6
	c-10.9-16.1-23.1-31.4-35.9-46.1c-11.4-13.1-24.1-25.1-36.8-36.9c-10.3-9.6-21.3-18.6-32.3-27.4c-22.7-18.3-47.3-33.7-73.1-47.3
	c-31.7-16.7-64.8-30-99.5-39.2c-17.2-4.6-34.6-8.3-52.1-11.4c-12.1-2.2-24.4-2.8-36.6-4.3C547.2,8.1,546.5,6.9,545.7,6.3z"/>
<path class="st0" d="M3.7,469.3c0-154.3,0-308.5,0-463c152.4,0,304.7,0,457.7,0.4c-3.8,1.1-8.2,1.9-12.7,2.6
	c-19,3-38.3,5.1-57.1,9.3c-36.9,8.2-72.4,20.8-106.3,37.5c-31.2,15.3-60.8,33-87.9,54.9c-12.2,9.9-24.7,19.6-36,30.4
	c-12.3,11.7-24.2,24.1-35.1,37.1c-12.9,15.3-25,31.2-36.6,47.4c-14.5,20.2-26.7,41.8-37,64.5c-6.6,14.7-13.4,29.4-18.9,44.5
	c-8.3,22.5-14.8,45.5-19.5,69C10.3,424.4,7,445,5.7,466C5.6,467.1,4.4,468.2,3.7,469.3z"/>
<path class="st1" d="M3.7,469.7c0.7-1.6,1.9-2.6,1.9-3.8c1.3-20.9,4.6-41.6,8.7-62.1c4.7-23.5,11.2-46.6,19.5-69
	c5.6-15.1,12.3-29.8,18.9-44.5c10.2-22.7,22.5-44.3,37-64.5c11.6-16.2,23.8-32.1,36.6-47.4c11-13,22.8-25.4,35.1-37.1
	c11.4-10.8,23.8-20.5,36-30.4c27-21.9,56.7-39.6,87.9-54.9c34-16.7,69.4-29.3,106.3-37.5c18.8-4.2,38-6.3,57.1-9.3
	c4.4-0.7,8.9-1.4,13.1-2.6c27.5-0.4,55.2-0.4,83.3-0.4c1.2,0.7,1.9,1.8,2.8,1.9c12.2,1.4,24.6,2.1,36.6,4.3
	c17.5,3.2,34.9,6.9,52.1,11.4c34.7,9.2,67.8,22.5,99.5,39.2c25.8,13.6,50.4,29,73.1,47.3c11,8.9,22,17.8,32.3,27.4
	c12.7,11.9,25.4,23.9,36.8,36.9c12.8,14.7,25,30,35.9,46.1c12.3,18.2,23.4,37.3,33.9,56.6c16.6,30.5,29.1,62.8,37.5,96.6
	c4.4,17.7,8.6,35.5,11.8,53.4c2.3,13.1,2.9,26.4,4.3,39.6c0.1,1.2,0.8,2.4,1.6,3.3c0.4,23.2,0.4,46.5,0.4,70.3
	c-0.7,1.6-1.9,2.6-1.9,3.8c-1.6,24.4-4.8,48.6-11,72.2c-5.3,20.2-10.6,40.4-17.4,60.1c-5.4,15.8-12.8,31-19.8,46.3
	c-9.9,21.9-22,42.7-35.8,62.4c-9.8,13.9-19.9,27.6-30.9,40.7c-11.4,13.5-23.4,26.5-35.9,39c-17.2,17.2-36.1,32.6-55.9,46.9
	c-24.6,17.7-50.6,33.1-78,46c-31.6,14.9-64.4,26.7-98.6,34.1c-16.9,3.7-34,6.2-51,9.1c-6.5,1.1-13.1,1.4-19.6,2.1
	c-0.9,0.1-1.7,0.7-2.4,1.5c-27.5,0.4-55.2,0.4-83.3,0.4c-1.6-0.7-2.6-1.8-3.8-1.9c-14.3-1.8-28.7-2.9-42.9-5.4
	c-14.6-2.5-29.1-6-43.4-9.8c-24.8-6.7-48.9-15.3-72.3-25.8c-29-13-56.7-28.4-82.5-47c-14.2-10.2-27.9-21.1-41.2-32.3
	c-11.2-9.5-21.9-19.7-32.2-30.2c-18.8-19.2-36.1-39.7-50.9-62.1c-11.6-17.5-22.2-35.7-32.4-54c-15.2-27.4-26.6-56.5-35.5-86.5
	c-6.8-22.7-12.2-45.6-15.4-69.1c-1.6-12.2-2.7-24.5-4.1-36.7c-0.1-0.9-0.7-1.7-1.5-2.4C3.7,518.3,3.7,494.2,3.7,469.7 M748.3,933.4
	c15.7-10.4,31.7-20.2,46.9-31.3c14.4-10.5,28.5-21.6,41.6-33.7c14.5-13.6,28.2-28.1,41.2-43.2c11.7-13.4,22.4-27.7,32.7-42.3
	c18.4-25.9,33.3-53.9,45.8-83.1c10-23.2,18.1-47.1,24.4-71.6c5.4-21.4,9.8-43,11.9-65c1.5-16.4,3-32.8,3.9-49.2
	c0.4-8.1-0.4-16.2-0.9-24.3c-0.6-10.5-1-21.1-2-31.6c-1.4-13.5-2.6-27.2-5.1-40.5c-5.2-26.9-12.2-53.2-21.6-79.1
	c-10.1-27.9-22.6-54.5-37.3-80.2c-17.4-30.4-38.1-58.5-61.8-84.2c-21-22.7-43.4-44-68.3-62.4c-23.5-17.4-48-33.3-74.3-46.1
	c-18.6-9-37.8-17.1-57.2-24.3c-33.2-12.1-67.4-20.6-102.6-24.1c-17.5-1.8-35.1-3-52.7-4c-10.8-0.6-21.7-0.7-32.5,0
	c-15.2,1.1-30.4,2.9-45.5,4.9c-12.8,1.7-25.6,3.4-38.1,6.7c-21.4,5.6-42.8,11.5-63.6,18.9c-17.9,6.3-35.2,14.5-52.4,22.6
	c-10.6,5-20.6,11.2-30.7,17.2c-27.9,16.7-54.2,35.8-77.9,58.1c-15.3,14.4-29.8,29.8-43.6,45.6c-11.4,13.1-21.7,27.1-31.7,41.3
	c-18.4,25.9-33.3,53.9-45.9,83.1c-10,23.2-18.1,47.1-24.3,71.6c-5.4,21.4-9.9,43-11.8,65c-1.5,16.6-3,33.1-3.9,49.8
	c-0.4,7.7,0.4,15.5,0.9,23.3c0.9,14,1.4,28,3.1,41.9c2,16.4,4.6,32.7,8,48.9c7.5,36.2,19.7,71,35.6,104.4
	c12.6,26.4,27,51.9,44.5,75.3c11.8,15.7,23.9,31.3,37.1,45.9c11.5,12.8,24.1,24.7,37.1,36.1c13.7,12,27.8,23.7,42.6,34.2
	c29.4,21,60.7,38.9,94.3,52c20.3,8,41,15.2,62,20.9c19.4,5.3,39.4,9,59.3,12.1c17,2.7,34.3,4.2,51.5,4.9c15.4,0.7,30.9-0.2,46.3-0.9
	c12.5-0.6,25.1-1.2,37.4-3.1c16.9-2.6,33.7-6,50.4-9.9c31.1-7.1,61-17.8,89.9-31.5C723.2,946.8,735.4,940.1,748.3,933.4z"/>
<path class="st0" d="M748,933.6c-12.6,6.5-24.8,13.2-37.3,19.1c-28.8,13.6-58.8,24.4-89.9,31.5c-16.7,3.8-33.5,7.2-50.4,9.9
	c-12.3,1.9-24.9,2.6-37.4,3.1c-15.4,0.7-30.9,1.5-46.3,0.9c-17.2-0.7-34.5-2.3-51.5-4.9c-19.9-3.1-39.9-6.7-59.3-12.1
	c-21-5.8-41.7-13-62-20.9c-33.6-13.2-64.9-31.1-94.3-52c-14.8-10.6-28.9-22.2-42.6-34.2c-12.9-11.4-25.6-23.3-37.1-36.1
	c-13.1-14.6-25.3-30.1-37.1-45.9c-17.5-23.5-31.9-48.9-44.5-75.3c-15.9-33.4-28.1-68.1-35.6-104.4c-3.3-16.1-5.9-32.5-8-48.9
	c-1.7-13.9-2.2-27.9-3.1-41.9c-0.5-7.8-1.3-15.6-0.9-23.3c0.9-16.6,2.4-33.2,3.9-49.8c2-22,6.4-43.6,11.8-65
	c6.2-24.5,14.3-48.4,24.3-71.6c12.6-29.2,27.5-57.1,45.9-83.1c10-14.1,20.3-28.2,31.7-41.3c13.8-15.8,28.3-31.2,43.6-45.6
	c23.7-22.2,49.9-41.4,77.9-58.1c10.1-6,20.1-12.3,30.7-17.2c17.2-8.1,34.5-16.2,52.4-22.6c20.8-7.4,42.2-13.3,63.6-18.9
	c12.4-3.2,25.3-4.9,38.1-6.7c15.1-2.1,30.3-3.8,45.5-4.9c10.8-0.8,21.7-0.6,32.5,0c17.6,0.9,35.2,2.2,52.7,4
	c35.2,3.5,69.5,12,102.6,24.1c19.4,7.1,38.6,15.2,57.2,24.3c26.3,12.8,50.8,28.7,74.3,46.1c24.9,18.4,47.4,39.7,68.3,62.4
	c23.7,25.7,44.4,53.8,61.8,84.2c14.7,25.7,27.2,52.3,37.3,80.2c9.4,25.8,16.4,52.2,21.6,79.1c2.6,13.3,3.8,27,5.1,40.5
	c1.1,10.5,1.5,21.1,2,31.6c0.4,8.1,1.3,16.2,0.9,24.3c-0.9,16.4-2.4,32.8-3.9,49.2c-2,22-6.4,43.6-11.9,65
	c-6.2,24.5-14.4,48.4-24.4,71.6C944,729.1,929,757,910.7,783c-10.3,14.5-21,28.8-32.7,42.3c-13,15-26.7,29.6-41.2,43.2
	c-13,12.1-27.2,23.2-41.6,33.7C780.1,913.1,764,923,748,933.6 M790.7,890.8c0.8-0.8,1.6-1.7,2.5-2.4c15.1-12.8,30.9-24.8,45-38.5
	c14.7-14.4,28.1-30.3,41.4-46.1c19.7-23.3,35.7-49.2,49.9-76.1c15.1-28.7,27.1-58.7,35.8-89.9c6.7-24.1,12.4-48.4,14.4-73.5
	c1.4-17.1,3-34.1,3.9-51.2c0.4-8.9-0.3-17.9-0.9-26.8c-0.8-13-1.3-26-3.1-38.9c-2.4-17.5-5.2-34.9-9-52.1
	c-7.6-34.9-19.4-68.5-35.8-100.2c-11-21.3-23.4-42-36.4-62.2c-14.6-22.7-32.5-43.1-51.2-62.5c-8.6-8.9-17.8-17.4-27.3-25.3
	c-13.5-11.3-27.1-22.4-41.4-32.7c-29.3-21.1-60.9-38.2-94.6-51.3c-16-6.3-32.5-11.6-48.9-16.7c-20.3-6.3-41-10.8-62.2-13.1
	c-16.3-1.8-32.6-4.4-49-4.7c-21.7-0.4-43.4,0.9-65.1,1.8c-9.7,0.4-19.4,1.3-28.9,3.1c-17.9,3.5-35.7,7.5-53.4,11.8
	C350.7,49.5,326.3,59,302.4,70c-27.5,12.7-53.9,27.6-78.3,45.6c-14.4,10.6-28.3,21.9-41.7,33.7c-10.7,9.4-20.5,19.7-30.2,30.1
	c-9.3,10-18.6,20.1-26.9,31C111,229,97.9,248.4,86.4,268.8c-13.7,24.3-25.3,49.4-34.7,75.7C39.7,378,31.2,412.3,27.8,447.7
	c-1.6,16.9-3,33.8-3.9,50.7c-0.4,8.9,0.3,17.9,0.9,26.8c1.1,15.6,1.9,31.2,4.1,46.7c2.6,18.4,5.8,36.8,10.3,54.9
	c7.6,30.6,18.8,60,32.6,88.4c11,22.5,23.7,44.1,38,64.7c14.3,20.6,30.1,39.9,47.3,57.9c11.6,12.2,24.6,23.1,37.1,34.4
	c17.1,15.3,36,28.3,55.4,40.6c30.4,19.3,62.7,34.6,96.6,46.4c28.6,9.9,57.8,17.6,87.9,21c17.1,2,34.3,4.1,51.5,4.8
	c16.4,0.7,32.9-0.3,49.3-0.8c9.4-0.3,18.9-0.6,28.1-2.1c18-2.9,36.1-5.9,53.9-10c31.4-7.2,61.5-18.1,90.7-31.8
	C736.7,926.6,764,910,790.7,890.8z"/>
<path class="st1" d="M790.4,891c-26.4,19-53.7,35.6-82.8,49.3c-29.1,13.7-59.3,24.6-90.7,31.8c-17.8,4.1-35.8,7.1-53.9,10
	c-9.2,1.5-18.7,1.8-28.1,2.1c-16.4,0.6-32.9,1.5-49.3,0.8c-17.2-0.7-34.4-2.8-51.5-4.8c-30.1-3.5-59.3-11.1-87.9-21
	c-33.9-11.8-66.2-27.1-96.6-46.4c-19.4-12.3-38.3-25.3-55.4-40.6c-12.6-11.2-25.5-22.2-37.1-34.4c-17.3-18-33.1-37.4-47.3-57.9
	c-14.3-20.6-27-42.1-38-64.7c-13.8-28.4-25-57.8-32.6-88.4c-4.5-18-7.6-36.4-10.3-54.9c-2.2-15.4-3-31.1-4.1-46.7
	c-0.6-8.9-1.4-17.9-0.9-26.8c0.8-16.9,2.3-33.9,3.9-50.7c3.4-35.5,12-69.8,23.9-103.3c9.4-26.2,21-51.4,34.7-75.7
	c11.6-20.4,24.7-39.8,38.9-58.3c8.3-10.8,17.6-21,26.9-31c9.7-10.4,19.6-20.7,30.2-30.1c13.4-11.8,27.4-23.1,41.7-33.7
	c24.4-18,50.7-32.9,78.3-45.6c23.9-11,48.3-20.6,73.9-26.7c17.7-4.3,35.5-8.3,53.4-11.8c9.5-1.8,19.2-2.7,28.9-3.1
	c21.7-1,43.4-2.2,65.1-1.8c16.4,0.3,32.7,2.9,49,4.7c21.2,2.3,41.9,6.8,62.2,13.1c16.5,5.1,32.9,10.4,48.9,16.7
	c33.6,13.2,65.2,30.3,94.6,51.3c14.3,10.2,27.9,21.4,41.4,32.7c9.5,8,18.7,16.4,27.3,25.3c18.8,19.4,36.6,39.8,51.2,62.5
	c13,20.2,25.4,40.9,36.4,62.2c16.4,31.7,28.2,65.3,35.8,100.2c3.7,17.2,6.6,34.7,9,52.1c1.8,12.9,2.3,25.9,3.1,38.9
	c0.6,8.9,1.4,17.9,0.9,26.8c-0.9,17.1-2.5,34.2-3.9,51.2c-2,25-7.7,49.4-14.4,73.5c-8.7,31.2-20.7,61.2-35.8,89.9
	c-14.2,26.9-30.2,52.8-49.9,76.1c-13.3,15.8-26.7,31.7-41.4,46.1c-14.1,13.8-29.9,25.8-45,38.5C792.4,889.2,791.6,890,790.4,891
	 M230.3,521.7c-0.6-1-1.3-1.9-1.7-2.9c-3.7-10.3-7.2-20.7-10.9-31.1c-1.4-4-1.8-7.3,4-7.6c0.7,0,1.4-1.1,2-1.6
	c-0.6-0.6-1.2-1.7-1.9-1.7c-8.8-0.1-17.6-0.1-26.5,0c-0.6,0-1.5,1-1.8,1.8c-0.1,0.3,0.9,1.5,1.4,1.6c6.5,0.4,8.4,5.5,10.2,10.3
	c5.6,15,11,30,16.5,45c0.9,2.4,1.4,4.5,4.8,4.6c3.7,0.1,4.3-2.2,5.3-4.7c4-10.8,8-21.5,12.1-32.2c0.6-1.5,1.2-2.9,2.3-5.4
	c4.4,13.3,8.5,25.4,12.4,37.6c0.8,2.6,1.3,4.8,5.1,4.8c3.6,0,4.4-2,5.3-4.6c5.7-15.6,11.4-31.2,17.1-46.9c1.4-3.9,3.2-7.3,7.8-8.3
	c0.8-0.2,1.4-1.4,2-2.1c-0.9-0.5-1.9-1.3-2.8-1.3c-5.7-0.1-11.3-0.1-17,0c-1,0-1.9,0.9-2.9,1.3c0.9,0.7,1.7,2,2.6,2.1
	c3.9,0.4,4.9,2.8,3.9,5.9c-3.8,12-7.8,23.9-11.8,35.9c-4.7-11.9-8.4-23.6-11.9-35.4c-0.9-3.1-0.3-5.6,3.6-6.3c1-0.2,1.8-1.4,2.7-2.1
	c-1.1-0.5-2.2-1.4-3.3-1.4c-7.2-0.1-14.3-0.1-21.5,0c-1.2,0-2.5,1-3.7,1.5c1,0.8,1.9,1.9,3.1,2.4c4.9,2,6.7,5.4,4.9,10.2
	C238.2,500.9,234.5,511,230.3,521.7 M515,508.8c0,6.8-0.1,13.7-0.1,20.5c0,3.1-1,5.5-4.5,6.2c-0.9,0.2-1.6,1.3-2.4,1.9
	c1,0.6,2,1.6,3,1.6c6,0.2,12,0.1,18,0c0.9,0,1.8-0.9,2.7-1.4c-0.5-0.7-0.9-1.6-1.6-2.1c-5.3-3.5-5.3-12.3,0.6-16.3
	c3.3,5.1,6.6,10.1,9.4,14.5c-2,1.9-3.1,3-4.2,4.1c1.5,0.4,2.9,1.2,4.4,1.2c5.8,0.1,11.7,0.1,17.5,0c1,0,2-1,3-1.6
	c-0.8-0.7-1.5-1.4-2.3-2c-1.5-1-3.5-1.5-4.5-2.8c-5.2-6.9-10.1-13.9-15.5-21.3c5.7-4.3,9.3-10.6,16.7-12c0.6-0.1,1.1-1.2,1.7-1.9
	c-0.8-0.4-1.5-1.2-2.3-1.2c-6.5-0.1-12.9-0.1-19.4-0.1c-0.2,0.6-0.4,1.3-0.5,1.9c2.3,0.8,4.6,1.6,7.3,2.5
	c-5.2,4.9-10.1,9.5-15.5,14.5c0-14.2,0-28.3,0-43.3c-6.5,1.7-12.8,1-18.9,5c9.1,0.9,7.4,7.2,7.6,12.5
	C515.1,495.5,515,501.6,515,508.8 M470,539.1c1.2,0,2.4,0.2,3.5-0.1c0.8-0.2,1.4-1,2.1-1.5c-0.6-0.7-1.1-1.9-1.7-1.9
	c-5-0.3-5.1-3.8-5.1-7.5c0-4.8-0.2-9.7,0.1-14.5c0.2-2.7,0.9-5.6,2.1-8.1c1.7-3.6,4.8-5.4,9-4.8c4.3,0.7,6.6,3.4,6.8,7.4
	c0.4,7.3,0.5,14.6,0.5,21.9c0,2.9-1.2,5.1-4.6,5.5c-0.8,0.1-1.5,1.3-2.2,2c0.9,0.5,1.8,1.4,2.7,1.5c6.7,0.1,13.3,0.1,20,0
	c0.8,0,1.6-1.1,2.4-1.7c-0.7-0.6-1.3-1.7-2-1.7c-4.4-0.4-4.7-3.5-4.8-6.9c-0.1-5.7,0.1-11.3-0.2-17c-0.3-6.3-2.7-11.9-8.7-14.7
	c-6.4-3-13-2.5-19,1.5c-1.3,0.9-2.5,1.9-4.1,3c-0.7-2.4-1.2-4.2-1.9-6.6c-5,2.5-11,0.7-14.5,4.2c2.5,2.6,6,4.4,6.2,6.5
	c0.8,8.1,0.7,16.3,0.4,24.4c-0.1,1.8-2.6,3.5-4.1,5.2c-0.8,0.9-1.7,1.5-2.6,2.3c1.1,0.5,2.2,1.4,3.3,1.4
	C458.7,539.1,463.9,539.1,470,539.1 M640,526.5c-0.3-2-0.6-3.9-0.9-5.9c-1.1,1.6-2.6,3-3.3,4.8c-2,5.6-5.9,8.3-11.6,8.7
	c-3.5,0.2-7,0.3-10.5,0.1c-7.3-0.4-9.9-3-10-10.2c-0.1-12-0.1-24,0-35.9c0-4.2,0.9-7.7,6.2-8c0.7,0,1.4-1.1,2.1-1.6
	c-0.8-0.6-1.6-1.7-2.4-1.8c-7.5-0.1-15-0.1-22.5,0c-0.9,0-1.8,1-2.7,1.5c0.7,0.7,1.4,1.9,2.2,2c3.5,0.5,5,2.5,5,5.8
	c0.1,14.5,0.1,28.9,0,43.4c0,3.2-1.4,5.3-4.8,6c-1.2,0.2-2.2,1.3-3.3,2c1.3,0.6,2.7,1.6,4,1.6c13.3,0.1,26.6,0.1,39.9,0.1
	C639.3,539.1,639.3,539.1,640,526.5 M380.8,514.8c0-9,0-18,0-27c0-4,1-7.3,5.9-7.7c0.8-0.1,1.5-1.3,2.3-1.9
	c-0.9-0.5-1.8-1.5-2.7-1.5c-7.5-0.1-15-0.1-22.5,0c-0.8,0-1.6,0.8-2.4,1.3c0.7,0.8,1.3,2.1,2,2.2c4.7,0.6,5.3,3.9,5.3,7.6
	c0,13.2,0,26.3,0,39.5c0,4.4-0.8,8-6.3,8.3c-0.7,0-1.3,1.1-1.9,1.7c0.8,0.6,1.6,1.7,2.4,1.7c17.5,0.1,34.9,0.1,52.4,0.1
	c0.4-1,0.8-1.6,0.8-2.2c0.3-4.1,0.7-8.3,0.8-12.5c0-1.2-0.8-2.5-1.2-3.8c-0.8,1-2,1.9-2.5,3.1c-3,8-5.9,10.2-14.4,10.5
	c-2.8,0.1-5.7,0.1-8.5-0.1c-7.1-0.5-9.5-3-9.7-10C380.7,521.4,380.8,518.6,380.8,514.8 M662.5,539.2c3.3,0.1,6.7,0.6,9.9,0.1
	c9.1-1.5,15.7-6.5,18.5-15.4c2.5-8.1,0.9-15.5-5.3-21.6c-7.1-7-18.5-8.9-27.9-4.8c-8.6,3.8-13.5,11.7-13.1,21.1
	C645.1,528.1,651,535.2,662.5,539.2 M760.8,514.9c-4,2-8.2,3.6-12,6c-4.9,3.1-6.5,7.4-4.8,11.9c1.8,4.8,5.7,6.6,10.6,6.7
	c6.2,0.1,10.8-2.8,14.4-7.7c2.6,7,4.7,8.6,10.3,7.6c3-0.5,6.2-1.2,6.3-6c-6,1.9-6-2-6.1-5.7c-0.2-7.3-0.2-14.6-0.6-21.9
	c-0.3-5.3-3.4-9-8.6-9.5c-5.9-0.6-11.9-0.2-17.8,0.2c-1.8,0.1-4.1,1.4-5,2.8c-1.2,1.9-1.6,4.6-1.4,6.8c0.1,1,2.6,2.7,3.7,2.5
	c2-0.4,3.9-1.9,5.6-3.2c0.8-0.6,0.8-2.4,1.6-3c1.7-1.3,3.9-3,5.6-2.9c1.8,0.2,4.2,2.1,5,3.9C770.3,509.4,768.9,511.4,760.8,514.9
	 M298,502c-8.3,9.9-8.3,23.6,0,31.7c7.9,7.7,22.4,8.1,31.1,0.8c1.1-1,1.6-2.8,2.3-4.3c-1.5,0.3-3.3,0.2-4.5,1
	c-11.3,7.1-20.9,2.5-22.6-10.7c-0.5-4.2,0.3-6.1,5.1-5.9c7.7,0.3,15.5,0.1,23.2,0.1c1.3-11-4.5-18.3-14.7-19.3
	C310.6,494.7,304,496.5,298,502 M795.8,517.8c0,2.8,0,5.7,0,8.5c0,4.2,0.3,8.6-5.7,9.4c-0.5,0.1-1.4,1.4-1.2,1.7
	c0.4,0.7,1.2,1.6,1.9,1.6c7,0.1,14,0.1,21,0c0.7,0,1.6-0.8,2-1.5c0.2-0.3-0.7-1.7-1.1-1.8c-6.2-0.6-5.5-5.4-5.6-9.4
	c-0.2-16-0.1-31.9-0.1-47.9c0-1.9,0-3.9,0-6.4c-6.7,1.2-13,1.1-19.4,4.1c8,3.9,8.1,3.9,8.1,12.7
	C795.8,498.1,795.8,507.5,795.8,517.8 M711.8,508.2c1.2-3.8,2.9-7.1,7.3-8c4.7-0.9,6,3,8.5,5.5c1.9,1.8,4.7,3,7.4,3.7
	c0.8,0.2,3.4-2.7,3.1-3.6c-0.8-2.6-2-6.4-4.1-7.2c-4.8-1.9-10.2-3.2-15.3-3.1c-9.9,0.2-17.7,7.1-19.8,16.1
	c-2.3,9.9,1.1,19.5,8.7,24.2c8.1,5.1,20.8,4.3,27.8-1.5c2.1-1.8,2.8-3.2-0.1-4.9c-1.4,0.8-2.6,1.5-3.9,2.2
	c-10.8,5.3-19,1.1-20.3-10.9C710.6,517,711.4,513,711.8,508.2 M428,527.5c-0.1,3.8-0.3,7.5-5.4,8.1c-0.6,0.1-1.1,1.3-1.6,2
	c0.8,0.5,1.5,1.4,2.3,1.4c6.8,0.1,13.6,0.1,20.4,0c0.9,0,1.8-1,2.7-1.5c-0.8-0.7-1.4-1.9-2.3-2c-3.7-0.6-4.4-3.1-4.4-6.1
	c-0.1-8.3-0.1-16.6-0.1-24.9c0-2.9,0-5.8,0-8.7c-12.7,0.8-17.3,2-18.9,5.5c7.5-1,7.2,4,7.3,8.9C427.9,515.6,428,521.1,428,527.5
	 M439.3,481c1.3-3.8,0.7-7.1-3.3-8.6c-3.1-1.2-6.5-0.5-7.5,2.8c-0.7,2.2-0.1,5.8,1.3,7.5C432.7,485.6,436.2,484.8,439.3,481z"/>
<path class="st2" d="M230.5,521.4c4-10.4,7.7-20.5,11.4-30.7c1.7-4.8-0.1-8.2-4.9-10.2c-1.2-0.5-2.1-1.6-3.1-2.4
	c1.2-0.5,2.4-1.5,3.7-1.5c7.2-0.1,14.3-0.1,21.5,0c1.1,0,2.2,0.9,3.3,1.4c-0.9,0.7-1.7,1.9-2.7,2.1c-3.9,0.7-4.5,3.3-3.6,6.3
	c3.5,11.8,7.1,23.5,11.9,35.4c4-11.9,8-23.9,11.8-35.9c1-3.1,0-5.6-3.9-5.9c-0.9-0.1-1.8-1.4-2.6-2.1c1-0.5,1.9-1.3,2.9-1.3
	c5.7-0.1,11.3-0.1,17,0c0.9,0,1.9,0.9,2.8,1.3c-0.7,0.7-1.2,2-2,2.1c-4.6,1-6.4,4.4-7.8,8.3c-5.7,15.6-11.4,31.2-17.1,46.9
	c-0.9,2.6-1.7,4.6-5.3,4.6c-3.8,0-4.2-2.2-5.1-4.8c-4-12.2-8-24.3-12.4-37.6c-1,2.5-1.7,3.9-2.3,5.4c-4,10.7-8.1,21.5-12.1,32.2
	c-0.9,2.6-1.6,4.8-5.3,4.7c-3.5-0.1-4-2.2-4.8-4.6c-5.4-15-10.9-30-16.5-45c-1.8-4.8-3.7-9.9-10.2-10.3c-0.5,0-1.5-1.3-1.4-1.6
	c0.3-0.7,1.2-1.8,1.8-1.8c8.8-0.1,17.7-0.1,26.5,0c0.6,0,1.2,1.1,1.9,1.7c-0.7,0.6-1.3,1.6-2,1.6c-5.8,0.3-5.4,3.6-4,7.6
	c3.6,10.4,7.2,20.7,10.9,31.1C229,519.8,229.7,520.7,230.5,521.4z"/>
<path class="st3" d="M515,508.3c0-6.7,0.1-12.8-0.1-19c-0.1-5.3,1.6-11.6-7.6-12.5c6.1-4.1,12.4-3.4,18.9-5c0,14.9,0,29,0,43.3
	c5.3-5,10.3-9.6,15.5-14.5c-2.7-0.9-5-1.7-7.3-2.5c0.2-0.6,0.4-1.3,0.5-1.9c6.5,0,12.9,0,19.4,0.1c0.8,0,1.5,0.8,2.3,1.2
	c-0.6,0.6-1,1.7-1.7,1.9c-7.4,1.4-11,7.6-16.7,12c5.3,7.4,10.3,14.5,15.5,21.3c1,1.3,3,1.8,4.5,2.8c0.8,0.5,1.5,1.3,2.3,2
	c-1,0.6-2,1.6-3,1.6c-5.8,0.2-11.7,0.2-17.5,0c-1.5,0-2.9-0.8-4.4-1.2c1.1-1.1,2.3-2.2,4.2-4.1c-2.9-4.4-6.1-9.4-9.4-14.5
	c-5.9,4.1-5.9,12.8-0.6,16.3c0.7,0.5,1.1,1.4,1.6,2.1c-0.9,0.5-1.8,1.4-2.7,1.4c-6,0.1-12,0.1-18,0c-1,0-2-1.1-3-1.6
	c0.8-0.7,1.5-1.7,2.4-1.9c3.5-0.7,4.5-3.1,4.5-6.2C514.9,522.4,515,515.6,515,508.3z"/>
<path class="st2" d="M469.5,539.1c-5.6,0-10.8,0.1-15.9-0.1c-1.1,0-2.2-0.9-3.3-1.4c0.9-0.8,1.8-1.4,2.6-2.3c1.5-1.7,4-3.4,4.1-5.2
	c0.3-8.1,0.4-16.3-0.4-24.4c-0.2-2.1-3.6-4-6.2-6.5c3.5-3.5,9.5-1.7,14.5-4.2c0.7,2.4,1.2,4.2,1.9,6.6c1.6-1.2,2.8-2.2,4.1-3
	c6-4.1,12.5-4.5,19-1.5c6.1,2.8,8.4,8.3,8.7,14.7c0.3,5.6,0.1,11.3,0.2,17c0,3.3,0.4,6.4,4.8,6.9c0.7,0.1,1.3,1.1,2,1.7
	c-0.8,0.6-1.6,1.7-2.4,1.7c-6.7,0.1-13.3,0.1-20,0c-0.9,0-1.8-0.9-2.7-1.5c0.7-0.7,1.4-1.9,2.2-2c3.4-0.4,4.6-2.6,4.6-5.5
	c0-7.3-0.1-14.6-0.5-21.9c-0.2-4-2.6-6.7-6.8-7.4c-4.2-0.7-7.3,1.2-9,4.8c-1.2,2.5-1.9,5.3-2.1,8.1c-0.3,4.8-0.1,9.6-0.1,14.5
	c0,3.7,0.1,7.2,5.1,7.5c0.6,0,1.1,1.3,1.7,1.9c-0.7,0.5-1.3,1.3-2.1,1.5C472.3,539.2,471.1,539,469.5,539.1z"/>
<path class="st4" d="M640,527c-0.6,12.1-0.6,12.1-12.4,12.1c-13.3,0-26.6,0-39.9-0.1c-1.3,0-2.7-1.1-4-1.6c1.1-0.7,2.1-1.8,3.3-2
	c3.4-0.7,4.8-2.9,4.8-6c0-14.5,0-28.9,0-43.4c0-3.2-1.5-5.3-5-5.8c-0.8-0.1-1.5-1.3-2.2-2c0.9-0.5,1.8-1.5,2.7-1.5
	c7.5-0.1,15-0.1,22.5,0c0.8,0,1.6,1.1,2.4,1.8c-0.7,0.6-1.4,1.6-2.1,1.6c-5.2,0.3-6.1,3.8-6.2,8c0,12-0.1,24,0,35.9
	c0.1,7.3,2.7,9.9,10,10.2c3.5,0.2,7,0.1,10.5-0.1c5.7-0.4,9.6-3.1,11.6-8.7c0.6-1.8,2.1-3.2,3.3-4.8
	C639.4,522.6,639.7,524.6,640,527z"/>
<path class="st5" d="M380.8,515.3c0,3.3-0.1,6.2,0,9c0.3,7,2.7,9.5,9.7,10c2.8,0.2,5.7,0.2,8.5,0.1c8.5-0.3,11.4-2.5,14.4-10.5
	c0.4-1.2,1.6-2.1,2.5-3.1c0.4,1.3,1.2,2.5,1.2,3.8c-0.1,4.2-0.5,8.3-0.8,12.5c-0.1,0.6-0.5,1.2-0.8,2.2c-17.4,0-34.9,0-52.4-0.1
	c-0.8,0-1.6-1.1-2.4-1.7c0.6-0.6,1.3-1.7,1.9-1.7c5.5-0.3,6.3-3.9,6.3-8.3c-0.1-13.2,0-26.3,0-39.5c0-3.8-0.6-7-5.3-7.6
	c-0.7-0.1-1.3-1.4-2-2.2c0.8-0.4,1.6-1.3,2.4-1.3c7.5-0.1,15-0.1,22.5,0c0.9,0,1.8,1,2.7,1.5c-0.8,0.7-1.5,1.9-2.3,1.9
	c-4.9,0.4-5.9,3.7-5.9,7.7C380.8,496.8,380.8,505.8,380.8,515.3z"/>
<path class="st6" d="M662.1,539.1c-11.1-3.8-17-10.9-17.4-20.5c-0.4-9.4,4.5-17.3,13.1-21.1c9.4-4.1,20.8-2.2,27.9,4.8
	c6.1,6.1,7.8,13.5,5.3,21.6c-2.8,9-9.4,13.9-18.5,15.4C669.3,539.8,665.9,539.2,662.1,539.1 M666.6,500.2c-2.4,2.1-5.7,3.8-7,6.4
	c-3.3,7.1-3,14.6,0,21.8c1.5,3.6,4.1,6.1,8.3,6.3c4.3,0.1,7.3-2.2,9-5.9c3.4-7.5,3.5-15.2,0-22.7
	C675.1,502.1,672.1,499.8,666.6,500.2z"/>
<path class="st7" d="M761.2,514.8c7.7-3.3,9.1-5.4,6.5-11.2c-0.8-1.8-3.2-3.7-5-3.9c-1.8-0.2-3.9,1.6-5.6,2.9
	c-0.8,0.6-0.8,2.4-1.6,3c-1.7,1.4-3.6,2.8-5.6,3.2c-1.1,0.2-3.6-1.5-3.7-2.5c-0.2-2.3,0.3-4.9,1.4-6.8c0.9-1.5,3.2-2.7,5-2.8
	c5.9-0.4,11.9-0.8,17.8-0.2c5.2,0.5,8.3,4.3,8.6,9.5c0.4,7.3,0.4,14.6,0.6,21.9c0.1,3.7,0.1,7.6,6.1,5.7c0,4.8-3.3,5.5-6.3,6
	c-5.6,1-7.7-0.6-10.3-7.6c-3.6,5-8.2,7.8-14.4,7.7c-5-0.1-8.8-1.9-10.6-6.7c-1.7-4.5-0.1-8.8,4.8-11.9
	C752.6,518.6,756.8,516.9,761.2,514.8 M755.2,525.5c-0.9,3.3,0.2,6,3.5,6.5c3.9,0.6,7.5-1.1,8.8-5c1.1-3.1,0.9-6.7,1.3-10.1
	c-0.5-0.4-1-0.8-1.5-1.2C763.4,518.7,759.5,521.8,755.2,525.5z"/>
<path class="st6" d="M298.2,501.8c5.7-5.3,12.3-7.1,19.6-6.4c10.2,1,15.9,8.2,14.7,19.3c-7.6,0-15.4,0.2-23.2-0.1
	c-4.7-0.2-5.6,1.7-5.1,5.9c1.7,13.2,11.3,17.7,22.6,10.7c1.2-0.8,3-0.7,4.5-1c-0.8,1.4-1.2,3.3-2.3,4.3c-8.7,7.4-23.3,6.9-31.1-0.8
	C289.7,525.6,289.7,512,298.2,501.8 M321.5,505.4c-1.4-4-4.2-6.1-8.4-5.1c-4.7,1.1-7,4.5-7.5,9.8c4.6,0,8.9,0.3,13.1-0.2
	C319.7,509.8,320.6,507.5,321.5,505.4z"/>
<path class="st6" d="M795.8,517.3c0-9.8,0-19.1-0.1-28.4c-0.1-8.8-0.1-8.8-8.1-12.7c6.4-3.1,12.7-2.9,19.4-4.1c0,2.5,0,4.5,0,6.4
	c0,16-0.1,31.9,0.1,47.9c0,4-0.6,8.8,5.6,9.4c0.5,0,1.3,1.5,1.1,1.8c-0.4,0.7-1.3,1.5-2,1.5c-7,0.1-14,0.1-21,0
	c-0.7,0-1.6-0.9-1.9-1.6c-0.2-0.3,0.7-1.6,1.2-1.7c5.9-0.8,5.6-5.2,5.7-9.4C795.8,523.4,795.8,520.6,795.8,517.3z"/>
<path class="st8" d="M711.7,508.6c-0.3,4.4-1.1,8.4-0.6,12.3c1.3,11.9,9.5,16.2,20.3,10.9c1.3-0.7,2.6-1.4,3.9-2.2
	c2.8,1.7,2.2,3.1,0.1,4.9c-7,5.8-19.7,6.5-27.8,1.5c-7.6-4.7-11-14.3-8.7-24.2c2.1-9,9.9-15.9,19.8-16.1c5.1-0.1,10.5,1.2,15.3,3.1
	c2,0.8,3.3,4.5,4.1,7.2c0.3,0.9-2.4,3.8-3.1,3.6c-2.6-0.7-5.5-1.8-7.4-3.7c-2.6-2.5-3.8-6.4-8.5-5.5
	C714.6,501.1,713,504.4,711.7,508.6z"/>
<path class="st9" d="M428,527c0-6-0.1-11.4-0.1-16.9c0-4.9,0.3-10-7.3-8.9c1.5-3.5,6.1-4.8,18.9-5.5c0,2.9,0,5.8,0,8.7
	c0,8.3,0.1,16.6,0.1,24.9c0,3.1,0.8,5.6,4.4,6.1c0.8,0.1,1.5,1.3,2.3,2c-0.9,0.5-1.8,1.5-2.7,1.5c-6.8,0.1-13.6,0.1-20.4,0
	c-0.8,0-1.5-0.9-2.3-1.4c0.5-0.7,1-2,1.6-2C427.7,535,427.9,531.3,428,527z"/>
<path class="st8" d="M439.1,481.3c-2.9,3.5-6.4,4.3-9.2,1.3c-1.5-1.6-2-5.2-1.3-7.5c1-3.3,4.4-4,7.5-2.8
	C440,473.9,440.6,477.2,439.1,481.3z"/>
<path class="st10" d="M667,500.2c5-0.4,8.1,2,9.9,5.9c3.4,7.5,3.4,15.2,0,22.7c-1.7,3.8-4.7,6.1-9,5.9c-4.2-0.1-6.8-2.7-8.3-6.3
	c-3-7.2-3.3-14.7,0-21.8C660.9,504,664.2,502.3,667,500.2z"/>
<path class="st11" d="M755.4,525.1c4.1-3.4,8-6.4,12-9.4c0.5,0.4,1,0.8,1.5,1.2c-0.4,3.4-0.2,7-1.3,10.1c-1.3,3.8-4.9,5.6-8.8,5
	C755.4,531.4,754.3,528.7,755.4,525.1z"/>
<path class="st12" d="M321.5,505.8c-0.9,1.7-1.8,4.1-3,4.2c-4.2,0.5-8.5,0.2-13.1,0.2c0.5-5.3,2.8-8.7,7.5-9.8
	C317.2,499.3,320,501.4,321.5,505.8z"/>
</svg>
